<?xml version="1.0" encoding="utf-8"?>
<!-- Generator: Adobe Illustrator 28.0.0, SVG Export Plug-In . SVG Version: 6.00 Build 0)  -->
<svg version="1.1" id="logo" xmlns="http://www.w3.org/2000/svg" xmlns:xlink="http://www.w3.org/1999/xlink" x="0px" y="0px"
	 viewBox="0 0 56 56" style="enable-background:new 0 0 56 56;" xml:space="preserve">
<style type="text/css">
	.st0{fill:#00AEEF;}
</style>
<g>
	<g>
		<g>
			<path class="st0" d="M56,56V27.28C49.73,27.08,21.23,32.45,56,56"/>
			<path class="st0" d="M32.03,14.41h-3.11v2.62h3.2c0.86,0,1.88-0.22,1.88-1.33C34,14.86,33.32,14.41,32.03,14.41"/>
			<path class="st0" d="M33.31,10.72c0-0.79-0.62-1.22-1.74-1.22c0,0-2.52,0-2.64,0v2.51h2.47C32.66,12.01,33.31,11.59,33.31,10.72"
				/>
			<path class="st0" d="M48.37,0H7.63C3.43,0,0,3.43,0,7.63v40.74C0,52.56,3.43,56,7.63,56H8.1C6.68,52.49-2.27,25.44,56,22.75V7.63
				C56,3.43,52.57,0,48.37,0 M10.14,19.73H6.93V6.8h3.21V19.73z M23.82,17.65c-1.51,1.61-3.09,2.3-5.28,2.3
				c-3.78,0-6.63-2.86-6.63-6.65v-0.04c0-3.81,2.9-6.68,6.74-6.68c2.11,0,3.68,0.61,5.08,1.99l0.16,0.15l-2.05,2.36l-0.18-0.16
				c-1.03-0.93-1.96-1.35-3.03-1.35c-1.93,0-3.38,1.57-3.38,3.68c0,2.1,1.45,3.69,3.38,3.69c1.32,0,2.15-0.51,3.12-1.4l0.16-0.15
				l2.06,2.08L23.82,17.65z M32.12,19.73h-6.17V6.8h6.02c1.47,0,2.66,0.41,3.43,1.17c0.62,0.62,0.92,1.37,0.92,2.32
				c0,1.15-0.49,2.01-1.42,2.65c1.44,0.66,2.12,1.62,2.12,3.13C37.02,18.4,35.24,19.73,32.12,19.73 M50.23,17.65
				c-1.51,1.61-3.09,2.3-5.28,2.3c-3.78,0-6.63-2.86-6.63-6.65v-0.04c0-3.81,2.9-6.68,6.74-6.68c2.11,0,3.68,0.61,5.08,1.99
				l0.16,0.15l-2.05,2.36l-0.18-0.16C47.04,10,46.1,9.58,45.03,9.58c-1.93,0-3.38,1.57-3.38,3.68c0,2.1,1.45,3.69,3.38,3.69
				c1.32,0,2.15-0.51,3.12-1.4l0.17-0.15l2.06,2.08L50.23,17.65z"/>
		</g>
	</g>
</g>
</svg>
