<?xml version="1.0" encoding="UTF-8"?>
<svg id="Layer_1" data-name="Layer 1" xmlns="http://www.w3.org/2000/svg" viewBox="0 0 162 162">
  <defs>
    <style>
      .cls-1 {
        fill: #00aeef;
      }
    </style>
  </defs>
  <path class="cls-1" d="m162,162v-83.09c-18.14-.55-100.57,14.96,0,83.09Z"/>
  <path class="cls-1" d="m162,22.08v43.74C-6.58,73.59,19.33,151.84,23.42,162h-1.34c-12.14,0-22.08-9.94-22.08-22.08V22.08C0,9.94,9.94,0,22.08,0h117.84c12.14,0,22.08,9.94,22.08,22.08Zm-132.67-2.41h-9.29v37.42h9.29V19.66Zm24.28,38.04c6.35,0,10.92-1.99,15.29-6.66l.44-.48-5.97-6.03-.48.44c-2.82,2.56-5.2,4.05-9.03,4.05-5.58,0-9.78-4.58-9.78-10.66s4.21-10.66,9.78-10.66c3.09,0,5.8,1.2,8.77,3.89l.51.46,5.93-6.82-.45-.45c-4.04-3.98-8.58-5.76-14.7-5.76-11.11,0-19.49,8.31-19.49,19.33v.1c0,10.96,8.25,19.23,19.18,19.23Zm53.49-11.19c0-4.37-1.98-7.15-6.13-9.06,2.72-1.87,4.12-4.36,4.12-7.68,0-2.76-.87-4.92-2.67-6.71-2.22-2.22-5.64-3.39-9.91-3.39h-17.43v37.42h17.83c9.01,0,14.18-3.85,14.18-10.57Zm-23.42-19.03c.35,0,7.65,0,7.65,0,3.24,0,5.02,1.25,5.02,3.53,0,2.51-1.86,3.73-5.54,3.73h-7.13v-7.26Zm0,14.22c.35,0,8.99,0,8.99,0,3.72,0,5.69,1.29,5.69,3.73,0,3.19-2.95,3.84-5.44,3.84h-9.24v-7.57Zm46.34,16c6.35,0,10.92-1.99,15.28-6.65l.45-.48-5.97-6.03-.48.44c-2.82,2.56-5.2,4.05-9.02,4.05-5.58,0-9.78-4.58-9.78-10.66s4.21-10.66,9.78-10.66c3.09,0,5.79,1.2,8.77,3.89l.51.46,5.92-6.82-.45-.45c-4.04-3.98-8.58-5.76-14.7-5.76-11.11,0-19.49,8.31-19.49,19.33v.1c0,10.96,8.24,19.22,19.18,19.22Z"/>
</svg>